<?xml version="1.0" encoding="UTF-8"?>
<svg version="1.1" xmlns="http://www.w3.org/2000/svg" width="768" height="768">
<path d="M0 0 C4.1618776 0.00020685 8.3237486 -0.00534149 12.485623 -0.01005757 C20.61357023 -0.01830504 28.7415102 -0.02110974 36.86946126 -0.02166995 C43.49052248 -0.02214808 50.11158134 -0.0242175 56.73264182 -0.02737057 C75.58312419 -0.03616222 94.43360091 -0.04079246 113.28408536 -0.0400401 C114.29677976 -0.04000014 115.30947416 -0.03996019 116.35285628 -0.03991902 C117.3668149 -0.03987814 118.38077353 -0.03983726 119.42545817 -0.03979514 C135.82614098 -0.03938943 152.22680074 -0.04894387 168.62747689 -0.06305739 C185.54459316 -0.07749816 202.46169826 -0.08432332 219.37882084 -0.08346361 C228.84536193 -0.08313421 238.3118789 -0.08576677 247.77841437 -0.09664166 C255.84383131 -0.10584893 263.90921319 -0.10783977 271.97463318 -0.10113224 C276.0720799 -0.09791721 280.16945978 -0.09762243 284.2668997 -0.10648549 C300.54812843 -0.13938571 316.7659742 0.09294443 333.02248824 1.04728496 C333.70926735 1.08695016 334.39604646 1.12661536 335.10363706 1.16748253 C356.56297599 2.43799738 378.20422997 4.78520195 398.80915511 11.14538372 C399.82259993 11.45765911 399.82259993 11.45765911 400.85651839 11.77624309 C418.58881268 17.4387296 435.15230078 26.76049034 449.80915511 38.14538372 C450.67282698 38.7989384 451.53649886 39.45249309 452.42634261 40.12585247 C473.33801385 56.3273869 489.9300264 76.10411028 502.80915511 99.14538372 C503.42532698 100.23979778 504.04149886 101.33421184 504.67634261 102.46178997 C527.02015271 144.51780587 525.9689608 195.97539176 525.95453882 242.33622861 C525.95433198 246.49810621 525.95988031 250.65997721 525.96459639 254.82185161 C525.97284386 262.94979884 525.97564856 271.07773881 525.97620877 279.20568987 C525.9766869 285.82675109 525.97875632 292.44780995 525.98190939 299.06887043 C525.99070104 317.9193528 525.99533129 336.76982952 525.99457892 355.62031396 C525.99451899 357.13935557 525.99451899 357.13935557 525.99445784 358.68908489 C525.99439652 360.21002282 525.99439652 360.21002282 525.99433396 361.76168678 C525.99392825 378.16236959 526.00348269 394.56302935 526.01759621 410.9637055 C526.03203699 427.88082177 526.03886214 444.79792687 526.03800243 461.71504945 C526.03767303 471.18159054 526.04030559 480.6481075 526.05118048 490.11464298 C526.06038776 498.18005992 526.06237859 506.2454418 526.05567106 514.31086179 C526.05245603 518.40830851 526.05216126 522.50568839 526.06102431 526.60312831 C526.09392453 542.88435704 525.8615944 559.10220281 524.90725386 575.35871685 C524.86758866 576.04549596 524.82792346 576.73227507 524.78705629 577.43986567 C523.51654144 598.8992046 521.16933687 620.54045858 514.80915511 641.14538372 C514.60097151 641.8210136 514.39278792 642.49664348 514.17829573 643.192747 C508.51580922 660.92504128 499.19404848 677.48852939 487.80915511 692.14538372 C487.15560042 693.00905559 486.50204573 693.87272747 485.82868636 694.76257122 C469.62715192 715.67424246 449.85042854 732.266255 426.80915511 745.14538372 C425.71474104 745.76155559 424.62032698 746.37772747 423.49274886 747.01257122 C381.43673295 769.35638132 329.97914707 768.30518941 283.61831021 768.29076743 C279.45643261 768.29056058 275.29456161 768.29610892 271.13268721 768.300825 C263.00473999 768.30907247 254.87680002 768.31187717 246.74884895 768.31243738 C240.12778773 768.31291551 233.50672887 768.31498493 226.8856684 768.318138 C208.03518602 768.32692965 189.1847093 768.3315599 170.33422486 768.33080753 C169.32153045 768.33076757 168.30883605 768.33072762 167.26545393 768.33068645 C166.25149531 768.33064557 165.23753669 768.33060469 164.19285204 768.33056257 C147.79216924 768.33015686 131.39150947 768.3397113 114.99083332 768.35382482 C98.07371705 768.3682656 81.15661195 768.37509075 64.23948938 768.37423104 C54.77294828 768.37390164 45.30643132 768.3765342 35.83989584 768.38740909 C27.7744789 768.39661637 19.70909702 768.3986072 11.64367703 768.39189967 C7.54623031 768.38868464 3.44885043 768.38838987 -0.64858949 768.39725292 C-16.92981822 768.43015314 -33.14766398 768.197823 -49.40417802 767.24348247 C-50.09095714 767.20381727 -50.77773625 767.16415207 -51.48532685 767.1232849 C-72.94466578 765.85277005 -94.58591975 763.50556548 -115.19084489 757.14538372 C-115.86647478 756.93720012 -116.54210466 756.72901653 -117.23820817 756.51452434 C-134.97050246 750.85203783 -151.53399057 741.53027709 -166.19084489 730.14538372 C-167.48635271 729.16505168 -167.48635271 729.16505168 -168.80803239 728.16491497 C-189.71970364 711.96338053 -206.31171618 692.18665715 -219.19084489 669.14538372 C-219.80701677 668.05096965 -220.42318864 666.95655559 -221.05803239 665.82897747 C-243.4018425 623.77296156 -242.35065059 572.31537568 -242.33622861 525.95453882 C-242.33602176 521.79266122 -242.3415701 517.63079022 -242.34628618 513.46891582 C-242.35453365 505.34096859 -242.35733835 497.21302863 -242.35789856 489.08507756 C-242.35837669 482.46401634 -242.36044611 475.84295748 -242.36359918 469.22189701 C-242.37239083 450.37141463 -242.37702107 431.52093791 -242.37626871 412.67045347 C-242.37622875 411.65775906 -242.37618879 410.64506466 -242.37614763 409.60168254 C-242.37610675 408.58772392 -242.37606587 407.57376529 -242.37602375 406.52908065 C-242.37561804 390.12839785 -242.38517248 373.72773808 -242.39928599 357.32706193 C-242.41372677 340.40994566 -242.42055193 323.49284056 -242.41969222 306.57571799 C-242.41936282 297.10917689 -242.42199538 287.64265993 -242.43287027 278.17612445 C-242.44207754 270.11070751 -242.44406838 262.04532563 -242.43736085 253.97990564 C-242.43414582 249.88245892 -242.43385104 245.78507904 -242.4427141 241.68763912 C-242.47561432 225.40641039 -242.24328418 209.18856462 -241.28894365 192.93205059 C-241.24927845 192.24527147 -241.20961325 191.55849236 -241.16874608 190.85090176 C-239.89823123 169.39156283 -237.55102666 147.75030886 -231.19084489 127.14538372 C-230.9826613 126.46975383 -230.77447771 125.79412395 -230.55998552 125.09802043 C-224.89749901 107.36572615 -215.57573827 90.80223804 -204.19084489 76.14538372 C-203.53729021 75.28171184 -202.88373552 74.41803997 -202.21037614 73.52819622 C-186.00884171 52.61652497 -166.23211832 36.02451243 -143.19084489 23.14538372 C-142.09643083 22.52921184 -141.00201677 21.91303997 -139.87443864 21.27819622 C-97.81842274 -1.06561389 -46.36083685 -0.01442198 0 0 Z " fill="#1F1E1E" transform="translate(242.1908448934555,-0.14538371562957764)"/>
<path d="M0 0 C5.21757227 4.75414319 8.75122059 9.84087807 11.92578125 16.07421875 C12.26053467 16.73083496 12.59528809 17.38745117 12.94018555 18.06396484 C17.80379053 28.32403223 18.13499523 41.82459091 14.390625 52.48828125 C7.65340596 68.62686678 -2.76364242 77.41926361 -18.63671875 83.94921875 C-31.7909489 87.51512451 -45.57213953 84.44994131 -57.23828125 78.0390625 C-68.38992994 71.18143945 -75.91751916 59.9800439 -79.33984375 47.35546875 C-81.1130138 32.98345885 -78.55235689 20.11611282 -70.63671875 7.94921875 C-63.32967625 -1.29642687 -52.89569866 -8.57596341 -41.13671875 -10.67578125 C-25.43780367 -12.27529335 -12.6473971 -9.83686441 0 0 Z " fill="#787777" transform="translate(559.63671875,491.05078125)"/>
<path d="M0 0 C5.21757227 4.75414319 8.75122059 9.84087807 11.92578125 16.07421875 C12.26053467 16.73083496 12.59528809 17.38745117 12.94018555 18.06396484 C17.80379053 28.32403223 18.13499523 41.82459091 14.390625 52.48828125 C7.65340596 68.62686678 -2.76364242 77.41926361 -18.63671875 83.94921875 C-31.7909489 87.51512451 -45.57213953 84.44994131 -57.23828125 78.0390625 C-68.38992994 71.18143945 -75.91751916 59.9800439 -79.33984375 47.35546875 C-81.1130138 32.98345885 -78.55235689 20.11611282 -70.63671875 7.94921875 C-63.32967625 -1.29642687 -52.89569866 -8.57596341 -41.13671875 -10.67578125 C-25.43780367 -12.27529335 -12.6473971 -9.83686441 0 0 Z " fill="#FDFDFD" transform="translate(415.63671875,491.05078125)"/>
<path d="M0 0 C5.21757227 4.75414319 8.75122059 9.84087807 11.92578125 16.07421875 C12.26053467 16.73083496 12.59528809 17.38745117 12.94018555 18.06396484 C17.80379053 28.32403223 18.13499523 41.82459091 14.390625 52.48828125 C7.65340596 68.62686678 -2.76364242 77.41926361 -18.63671875 83.94921875 C-31.7909489 87.51512451 -45.57213953 84.44994131 -57.23828125 78.0390625 C-68.38992994 71.18143945 -75.91751916 59.9800439 -79.33984375 47.35546875 C-81.1130138 32.98345885 -78.55235689 20.11611282 -70.63671875 7.94921875 C-63.32967625 -1.29642687 -52.89569866 -8.57596341 -41.13671875 -10.67578125 C-25.43780367 -12.27529335 -12.6473971 -9.83686441 0 0 Z " fill="#787777" transform="translate(271.63671875,491.05078125)"/>
<path d="M0 0 C5.21757227 4.75414319 8.75122059 9.84087807 11.92578125 16.07421875 C12.26053467 16.73083496 12.59528809 17.38745117 12.94018555 18.06396484 C17.80379053 28.32403223 18.13499523 41.82459091 14.390625 52.48828125 C7.65340596 68.62686678 -2.76364242 77.41926361 -18.63671875 83.94921875 C-31.7909489 87.51512451 -45.57213953 84.44994131 -57.23828125 78.0390625 C-68.38992994 71.18143945 -75.91751916 59.9800439 -79.33984375 47.35546875 C-81.1130138 32.98345885 -78.55235689 20.11611282 -70.63671875 7.94921875 C-63.32967625 -1.29642687 -52.89569866 -8.57596341 -41.13671875 -10.67578125 C-25.43780367 -12.27529335 -12.6473971 -9.83686441 0 0 Z " fill="#FDFDFD" transform="translate(559.63671875,347.05078125)"/>
<path d="M0 0 C5.21757227 4.75414319 8.75122059 9.84087807 11.92578125 16.07421875 C12.26053467 16.73083496 12.59528809 17.38745117 12.94018555 18.06396484 C17.80379053 28.32403223 18.13499523 41.82459091 14.390625 52.48828125 C7.65340596 68.62686678 -2.76364242 77.41926361 -18.63671875 83.94921875 C-31.7909489 87.51512451 -45.57213953 84.44994131 -57.23828125 78.0390625 C-68.38992994 71.18143945 -75.91751916 59.9800439 -79.33984375 47.35546875 C-81.1130138 32.98345885 -78.55235689 20.11611282 -70.63671875 7.94921875 C-63.32967625 -1.29642687 -52.89569866 -8.57596341 -41.13671875 -10.67578125 C-25.43780367 -12.27529335 -12.6473971 -9.83686441 0 0 Z " fill="#FDFDFD" transform="translate(415.63671875,347.05078125)"/>
<path d="M0 0 C5.21757227 4.75414319 8.75122059 9.84087807 11.92578125 16.07421875 C12.26053467 16.73083496 12.59528809 17.38745117 12.94018555 18.06396484 C17.80379053 28.32403223 18.13499523 41.82459091 14.390625 52.48828125 C7.65340596 68.62686678 -2.76364242 77.41926361 -18.63671875 83.94921875 C-31.7909489 87.51512451 -45.57213953 84.44994131 -57.23828125 78.0390625 C-68.38992994 71.18143945 -75.91751916 59.9800439 -79.33984375 47.35546875 C-81.1130138 32.98345885 -78.55235689 20.11611282 -70.63671875 7.94921875 C-63.32967625 -1.29642687 -52.89569866 -8.57596341 -41.13671875 -10.67578125 C-25.43780367 -12.27529335 -12.6473971 -9.83686441 0 0 Z " fill="#FDFDFD" transform="translate(271.63671875,347.05078125)"/>
<path d="M0 0 C5.21757227 4.75414319 8.75122059 9.84087807 11.92578125 16.07421875 C12.26053467 16.73083496 12.59528809 17.38745117 12.94018555 18.06396484 C17.80379053 28.32403223 18.13499523 41.82459091 14.390625 52.48828125 C7.65340596 68.62686678 -2.76364242 77.41926361 -18.63671875 83.94921875 C-31.7909489 87.51512451 -45.57213953 84.44994131 -57.23828125 78.0390625 C-68.38992994 71.18143945 -75.91751916 59.9800439 -79.33984375 47.35546875 C-81.1130138 32.98345885 -78.55235689 20.11611282 -70.63671875 7.94921875 C-63.32967625 -1.29642687 -52.89569866 -8.57596341 -41.13671875 -10.67578125 C-25.43780367 -12.27529335 -12.6473971 -9.83686441 0 0 Z " fill="#787777" transform="translate(559.63671875,203.05078125)"/>
<path d="M0 0 C5.21757227 4.75414319 8.75122059 9.84087807 11.92578125 16.07421875 C12.26053467 16.73083496 12.59528809 17.38745117 12.94018555 18.06396484 C17.80379053 28.32403223 18.13499523 41.82459091 14.390625 52.48828125 C7.65340596 68.62686678 -2.76364242 77.41926361 -18.63671875 83.94921875 C-31.7909489 87.51512451 -45.57213953 84.44994131 -57.23828125 78.0390625 C-68.38992994 71.18143945 -75.91751916 59.9800439 -79.33984375 47.35546875 C-81.1130138 32.98345885 -78.55235689 20.11611282 -70.63671875 7.94921875 C-63.32967625 -1.29642687 -52.89569866 -8.57596341 -41.13671875 -10.67578125 C-25.43780367 -12.27529335 -12.6473971 -9.83686441 0 0 Z " fill="#787777" transform="translate(415.63671875,203.05078125)"/>
<path d="M0 0 C5.21757227 4.75414319 8.75122059 9.84087807 11.92578125 16.07421875 C12.26053467 16.73083496 12.59528809 17.38745117 12.94018555 18.06396484 C17.80379053 28.32403223 18.13499523 41.82459091 14.390625 52.48828125 C7.65340596 68.62686678 -2.76364242 77.41926361 -18.63671875 83.94921875 C-31.7909489 87.51512451 -45.57213953 84.44994131 -57.23828125 78.0390625 C-68.38992994 71.18143945 -75.91751916 59.9800439 -79.33984375 47.35546875 C-81.1130138 32.98345885 -78.55235689 20.11611282 -70.63671875 7.94921875 C-63.32967625 -1.29642687 -52.89569866 -8.57596341 -41.13671875 -10.67578125 C-25.43780367 -12.27529335 -12.6473971 -9.83686441 0 0 Z " fill="#787777" transform="translate(271.63671875,203.05078125)"/>
</svg>
